<?xml version="1.0" encoding="UTF-8" standalone="no"?>
<svg xmlns="http://www.w3.org/2000/svg" width="64px" height="64px" viewBox="0 0 64 64" version="1.1">
  <defs>
    <linearGradient id="stockFill" x1="10" y1="8" x2="52" y2="56" gradientUnits="userSpaceOnUse">
      <stop offset="0" style="stop-color:#729fcf;stop-opacity:1"/>
      <stop offset="1" style="stop-color:#204a87;stop-opacity:1"/>
    </linearGradient>
    <linearGradient id="cutterFill" x1="0" y1="16" x2="0" y2="42" gradientUnits="userSpaceOnUse">
      <stop offset="0" style="stop-color:#eeeeec;stop-opacity:1"/>
      <stop offset="1" style="stop-color:#888a85;stop-opacity:1"/>
    </linearGradient>
  </defs>
  <rect
    x="4"
    y="8"
    width="56"
    height="48"
    rx="2"
    ry="2"
    style="fill:url(#stockFill);fill-opacity:1;stroke:#0b1521;stroke-width:2;stroke-linejoin:round"
  />
  <path
    d="M 13 18 H 51 V 28 H 15 V 38 H 47 V 48 H 13"
    style="fill:none;stroke:#172a04;stroke-width:8;stroke-linecap:round;stroke-linejoin:round"
  />
  <path
    d="M 13 18 H 51 V 28 H 15 V 38 H 47 V 48 H 13"
    style="fill:none;stroke:#73d216;stroke-width:4;stroke-linecap:round;stroke-linejoin:round"
  />
  <path
    d="M 13 17 H 50 V 27 H 14 V 37 H 46 V 47 H 13"
    style="fill:none;stroke:#8ae234;stroke-width:2;stroke-linecap:round;stroke-linejoin:round"
  />
  <path
    d="M 41 16 L 57 22 V 38 L 41 44 L 25 38 V 22 Z"
    style="fill:url(#cutterFill);fill-opacity:1;stroke:#2e3436;stroke-width:2;stroke-linejoin:round"
  />
  <path
    d="M 25 22 L 41 16 L 57 22 L 41 28 Z"
    style="fill:#f3f3f2;fill-opacity:1;stroke:#d3d7cf;stroke-width:1.5;stroke-linejoin:round"
  />
  <path
    d="M 41 28 V 44"
    style="fill:none;stroke:#d3d7cf;stroke-width:1.5;stroke-linecap:round"
  />
</svg>
